<mxfile host="app.diagrams.net" modified="2020-07-24T18:05:56.108Z" agent="5.0 (Macintosh; Intel Mac OS X 10_15_5) AppleWebKit/537.36 (KHTML, like Gecko) Chrome/84.0.4147.89 Safari/537.36" etag="tYhcVPhCib_R2QzmX4_5" version="13.5.3" type="github">
  <diagram id="6a731a19-8d31-9384-78a2-239565b7b9f0" name="Page-1">
    <mxGraphModel dx="4753" dy="2677" grid="1" gridSize="10" guides="1" tooltips="1" connect="1" arrows="1" fold="1" page="1" pageScale="1" pageWidth="1169" pageHeight="827" background="#ffffff" math="0" shadow="0">
      <root>
        <mxCell id="0" />
        <mxCell id="1" parent="0" />
        <mxCell id="1350" value="Interaction" style="ellipse;whiteSpace=wrap;html=1;shadow=0;fontFamily=Helvetica;fontSize=20;fontColor=#FFFFFF;align=center;strokeWidth=3;fillColor=#1699D3;strokeColor=none;" parent="1" vertex="1">
          <mxGeometry x="523.5" y="271.5" width="120" height="120" as="geometry" />
        </mxCell>
        <mxCell id="1351" value="Landing Page" style="ellipse;whiteSpace=wrap;html=1;shadow=0;fontFamily=Helvetica;fontSize=20;fontColor=#FFFFFF;align=center;strokeWidth=3;fillColor=#F08705;strokeColor=none;gradientColor=none;" parent="1" vertex="1">
          <mxGeometry x="1570" y="381.5" width="120" height="120" as="geometry" />
        </mxCell>
        <mxCell id="1353" value="Projects" style="ellipse;whiteSpace=wrap;html=1;shadow=0;fontFamily=Helvetica;fontSize=20;fontColor=#FFFFFF;align=center;strokeWidth=3;fillColor=#1699D3;strokeColor=none;" parent="1" vertex="1">
          <mxGeometry x="1936" y="806.5" width="114" height="120" as="geometry" />
        </mxCell>
        <mxCell id="1354" value="Experience" style="ellipse;whiteSpace=wrap;html=1;shadow=0;fontFamily=Helvetica;fontSize=20;fontColor=#FFFFFF;align=center;strokeWidth=3;fillColor=#736ca8;strokeColor=none;" parent="1" vertex="1">
          <mxGeometry x="1711" y="1171.5" width="120" height="120" as="geometry" />
        </mxCell>
        <mxCell id="1355" value="&amp;nbsp;CSS" style="ellipse;whiteSpace=wrap;html=1;shadow=0;fontFamily=Helvetica;fontSize=20;fontColor=#FFFFFF;align=center;strokeWidth=3;fillColor=#F08705;strokeColor=none;" parent="1" vertex="1">
          <mxGeometry x="1163.5" y="1309" width="120" height="120" as="geometry" />
        </mxCell>
        <mxCell id="1359" style="endArrow=none;strokeWidth=6;strokeColor=#1699D3;html=1;" parent="1" source="1515" target="1350" edge="1">
          <mxGeometry relative="1" as="geometry" />
        </mxCell>
        <mxCell id="1360" style="endArrow=none;strokeWidth=6;strokeColor=#f08705;html=1;" parent="1" source="1515" target="1351" edge="1">
          <mxGeometry relative="1" as="geometry" />
        </mxCell>
        <mxCell id="1362" style="endArrow=none;strokeWidth=6;strokeColor=#1699D3;html=1;" parent="1" source="1515" target="1353" edge="1">
          <mxGeometry relative="1" as="geometry" />
        </mxCell>
        <mxCell id="1363" style="endArrow=none;strokeWidth=6;strokeColor=#736CA8;html=1;" parent="1" source="1515" target="1516" edge="1">
          <mxGeometry relative="1" as="geometry" />
        </mxCell>
        <mxCell id="1364" style="endArrow=none;strokeWidth=6;strokeColor=#736ca8;html=1;" parent="1" source="1515" target="1354" edge="1">
          <mxGeometry relative="1" as="geometry" />
        </mxCell>
        <mxCell id="1365" value="" style="edgeStyle=none;endArrow=none;strokeWidth=6;strokeColor=#F08705;html=1;" parent="1" source="1515" target="1355" edge="1">
          <mxGeometry x="181" y="226.5" width="100" height="100" as="geometry">
            <mxPoint x="181" y="326.5" as="sourcePoint" />
            <mxPoint x="281" y="226.5" as="targetPoint" />
          </mxGeometry>
        </mxCell>
        <mxCell id="1367" value="Travel Pictures - About me" style="rounded=1;fillColor=#64BBE2;strokeColor=none;strokeWidth=3;shadow=0;html=1;fontColor=#FFFFFF;" parent="1" vertex="1">
          <mxGeometry x="370" y="440" width="200" height="40" as="geometry" />
        </mxCell>
        <mxCell id="1368" value="Coding Questions - Blog about what I&#39;m working on" style="rounded=1;fillColor=#64BBE2;strokeColor=none;strokeWidth=3;shadow=0;html=1;fontColor=#FFFFFF;" parent="1" vertex="1">
          <mxGeometry x="130" y="346.5" width="318.5" height="43.5" as="geometry" />
        </mxCell>
        <mxCell id="1370" value="Current Projects" style="rounded=1;fillColor=#64BBE2;strokeColor=none;strokeWidth=3;shadow=0;html=1;fontColor=#FFFFFF;" parent="1" vertex="1">
          <mxGeometry x="318.5" y="246.5" width="130" height="40" as="geometry" />
        </mxCell>
        <mxCell id="1372" value="Coding Video - Code along with me" style="rounded=1;fillColor=#64BBE2;strokeColor=none;strokeWidth=3;shadow=0;html=1;fontColor=#FFFFFF;" parent="1" vertex="1">
          <mxGeometry x="390" y="103" width="211.5" height="43.5" as="geometry" />
        </mxCell>
        <mxCell id="1373" value="Apple Music - Listening Now" style="rounded=1;fillColor=#64BBE2;strokeColor=none;strokeWidth=3;shadow=0;html=1;fontColor=#FFFFFF;" parent="1" vertex="1">
          <mxGeometry x="608.5" y="146.5" width="171.5" height="43.5" as="geometry" />
        </mxCell>
        <mxCell id="1374" value="Instagram" style="rounded=1;fillColor=#64BBE2;strokeColor=none;strokeWidth=3;shadow=0;html=1;fontColor=#FFFFFF;" parent="1" vertex="1">
          <mxGeometry x="370" y="186.5" width="130" height="40" as="geometry" />
        </mxCell>
        <mxCell id="1375" value="GitHub - Links" style="rounded=1;fillColor=#64BBE2;strokeColor=none;strokeWidth=3;shadow=0;html=1;fontColor=#FFFFFF;" parent="1" vertex="1">
          <mxGeometry x="698.5" y="266.5" width="130" height="40" as="geometry" />
        </mxCell>
        <mxCell id="1376" value="LinkedIn" style="rounded=1;fillColor=#64BBE2;strokeColor=none;strokeWidth=3;shadow=0;html=1;fontColor=#FFFFFF;" parent="1" vertex="1">
          <mxGeometry x="713.5" y="346.5" width="130" height="40" as="geometry" />
        </mxCell>
        <mxCell id="1377" value="" style="edgeStyle=none;endArrow=none;strokeWidth=3;strokeColor=#64BBE2;html=1;" parent="1" source="1350" target="1376" edge="1">
          <mxGeometry x="-221.5" y="56.5" width="100" height="100" as="geometry">
            <mxPoint x="-221.5" y="156.5" as="sourcePoint" />
            <mxPoint x="-121.5" y="56.5" as="targetPoint" />
          </mxGeometry>
        </mxCell>
        <mxCell id="1378" value="" style="edgeStyle=none;endArrow=none;strokeWidth=3;strokeColor=#64BBE2;html=1;" parent="1" source="1350" target="1367" edge="1">
          <mxGeometry x="-221.5" y="56.5" width="100" height="100" as="geometry">
            <mxPoint x="-221.5" y="156.5" as="sourcePoint" />
            <mxPoint x="-121.5" y="56.5" as="targetPoint" />
          </mxGeometry>
        </mxCell>
        <mxCell id="1380" value="" style="edgeStyle=none;endArrow=none;strokeWidth=3;strokeColor=#64BBE2;html=1;" parent="1" source="1350" target="1368" edge="1">
          <mxGeometry x="-221.5" y="56.5" width="100" height="100" as="geometry">
            <mxPoint x="-221.5" y="156.5" as="sourcePoint" />
            <mxPoint x="-121.5" y="56.5" as="targetPoint" />
          </mxGeometry>
        </mxCell>
        <mxCell id="1382" value="" style="edgeStyle=none;endArrow=none;strokeWidth=3;strokeColor=#64BBE2;html=1;" parent="1" source="1350" target="1370" edge="1">
          <mxGeometry x="-221.5" y="56.5" width="100" height="100" as="geometry">
            <mxPoint x="-221.5" y="156.5" as="sourcePoint" />
            <mxPoint x="-121.5" y="56.5" as="targetPoint" />
          </mxGeometry>
        </mxCell>
        <mxCell id="1384" value="" style="edgeStyle=none;endArrow=none;strokeWidth=3;strokeColor=#64BBE2;html=1;" parent="1" source="1350" target="1372" edge="1">
          <mxGeometry x="-221.5" y="56.5" width="100" height="100" as="geometry">
            <mxPoint x="-221.5" y="156.5" as="sourcePoint" />
            <mxPoint x="-121.5" y="56.5" as="targetPoint" />
          </mxGeometry>
        </mxCell>
        <mxCell id="1385" value="" style="edgeStyle=none;endArrow=none;strokeWidth=3;strokeColor=#64BBE2;html=1;" parent="1" source="1350" target="1373" edge="1">
          <mxGeometry x="-221.5" y="56.5" width="100" height="100" as="geometry">
            <mxPoint x="-221.5" y="156.5" as="sourcePoint" />
            <mxPoint x="-121.5" y="56.5" as="targetPoint" />
          </mxGeometry>
        </mxCell>
        <mxCell id="1386" value="" style="edgeStyle=none;endArrow=none;strokeWidth=3;strokeColor=#64BBE2;html=1;" parent="1" source="1350" target="1374" edge="1">
          <mxGeometry x="-221.5" y="56.5" width="100" height="100" as="geometry">
            <mxPoint x="-221.5" y="156.5" as="sourcePoint" />
            <mxPoint x="-121.5" y="56.5" as="targetPoint" />
          </mxGeometry>
        </mxCell>
        <mxCell id="1387" value="" style="edgeStyle=none;endArrow=none;strokeWidth=3;strokeColor=#64BBE2;html=1;" parent="1" source="1350" target="1375" edge="1">
          <mxGeometry x="-221.5" y="56.5" width="100" height="100" as="geometry">
            <mxPoint x="-221.5" y="156.5" as="sourcePoint" />
            <mxPoint x="-121.5" y="56.5" as="targetPoint" />
          </mxGeometry>
        </mxCell>
        <mxCell id="1393" value="&lt;br&gt;Video Intro" style="rounded=1;fillColor=#f5af58;strokeColor=none;strokeWidth=3;shadow=0;html=1;fontColor=#FFFFFF;" parent="1" vertex="1">
          <mxGeometry x="1390" y="266.5" width="120" height="40" as="geometry" />
        </mxCell>
        <mxCell id="1395" value="Countdown&amp;nbsp;" style="rounded=1;fillColor=#f5af58;strokeColor=none;strokeWidth=3;shadow=0;html=1;fontColor=#FFFFFF;" parent="1" vertex="1">
          <mxGeometry x="1550" y="226.5" width="120" height="40" as="geometry" />
        </mxCell>
        <mxCell id="1397" value="Drawing on Screen" style="rounded=1;fillColor=#f5af58;strokeColor=none;strokeWidth=3;shadow=0;html=1;fontColor=#FFFFFF;" parent="1" vertex="1">
          <mxGeometry x="1856" y="506.5" width="120" height="40" as="geometry" />
        </mxCell>
        <mxCell id="1398" value="Logo - Animated" style="rounded=1;fillColor=#f5af58;strokeColor=none;strokeWidth=3;shadow=0;html=1;fontColor=#FFFFFF;" parent="1" vertex="1">
          <mxGeometry x="1810" y="300" width="120" height="40" as="geometry" />
        </mxCell>
        <mxCell id="1405" value="" style="edgeStyle=none;endArrow=none;strokeWidth=3;strokeColor=#F5AF58;html=1;" parent="1" source="1351" target="1393" edge="1">
          <mxGeometry x="3.5" y="21.5" width="100" height="100" as="geometry">
            <mxPoint x="3.5" y="121.5" as="sourcePoint" />
            <mxPoint x="103.5" y="21.5" as="targetPoint" />
          </mxGeometry>
        </mxCell>
        <mxCell id="1407" value="" style="edgeStyle=none;endArrow=none;strokeWidth=3;strokeColor=#F5AF58;html=1;" parent="1" source="1351" target="1395" edge="1">
          <mxGeometry x="3.5" y="21.5" width="100" height="100" as="geometry">
            <mxPoint x="3.5" y="121.5" as="sourcePoint" />
            <mxPoint x="103.5" y="21.5" as="targetPoint" />
          </mxGeometry>
        </mxCell>
        <mxCell id="1409" value="" style="edgeStyle=none;endArrow=none;strokeWidth=3;strokeColor=#F5AF58;html=1;" parent="1" source="1351" target="1397" edge="1">
          <mxGeometry x="3.5" y="21.5" width="100" height="100" as="geometry">
            <mxPoint x="3.5" y="121.5" as="sourcePoint" />
            <mxPoint x="103.5" y="21.5" as="targetPoint" />
          </mxGeometry>
        </mxCell>
        <mxCell id="1410" value="" style="edgeStyle=none;endArrow=none;strokeWidth=3;strokeColor=#F5AF58;html=1;" parent="1" source="1351" target="1398" edge="1">
          <mxGeometry x="3.5" y="21.5" width="100" height="100" as="geometry">
            <mxPoint x="3.5" y="121.5" as="sourcePoint" />
            <mxPoint x="103.5" y="21.5" as="targetPoint" />
          </mxGeometry>
        </mxCell>
        <mxCell id="1441" value="Benchmark/Portfolio Matching" style="rounded=1;fillColor=#64BBE2;strokeColor=none;strokeWidth=3;shadow=0;html=1;fontColor=#FFFFFF;" parent="1" vertex="1">
          <mxGeometry x="2121" y="966.5" width="189" height="53.5" as="geometry" />
        </mxCell>
        <mxCell id="1443" value="website" style="rounded=1;fillColor=#64BBE2;strokeColor=none;strokeWidth=3;shadow=0;html=1;fontColor=#FFFFFF;" parent="1" vertex="1">
          <mxGeometry x="2080" y="740" width="120" height="40" as="geometry" />
        </mxCell>
        <mxCell id="1444" value="Binary tree manipulation" style="rounded=1;fillColor=#64BBE2;strokeColor=none;strokeWidth=3;shadow=0;html=1;fontColor=#FFFFFF;" parent="1" vertex="1">
          <mxGeometry x="1830" y="956.5" width="146" height="53.5" as="geometry" />
        </mxCell>
        <mxCell id="1445" value="OS Shell&amp;nbsp;" style="rounded=1;fillColor=#64BBE2;strokeColor=none;strokeWidth=3;shadow=0;html=1;fontColor=#FFFFFF;" parent="1" vertex="1">
          <mxGeometry x="1886" y="700" width="120" height="40" as="geometry" />
        </mxCell>
        <mxCell id="1453" value="" style="edgeStyle=none;endArrow=none;strokeWidth=3;strokeColor=#64BBE2;html=1;" parent="1" source="1353" target="1441" edge="1">
          <mxGeometry x="-24" y="196.5" width="100" height="100" as="geometry">
            <mxPoint x="-24" y="296.5" as="sourcePoint" />
            <mxPoint x="76" y="196.5" as="targetPoint" />
          </mxGeometry>
        </mxCell>
        <mxCell id="1454" value="" style="edgeStyle=none;endArrow=none;strokeWidth=3;strokeColor=#64BBE2;html=1;" parent="1" source="1353" target="1443" edge="1">
          <mxGeometry x="-24" y="196.5" width="100" height="100" as="geometry">
            <mxPoint x="-24" y="296.5" as="sourcePoint" />
            <mxPoint x="76" y="196.5" as="targetPoint" />
          </mxGeometry>
        </mxCell>
        <mxCell id="1455" value="" style="edgeStyle=none;endArrow=none;strokeWidth=3;strokeColor=#64BBE2;html=1;" parent="1" source="1353" target="1444" edge="1">
          <mxGeometry x="-24" y="196.5" width="100" height="100" as="geometry">
            <mxPoint x="-24" y="296.5" as="sourcePoint" />
            <mxPoint x="76" y="196.5" as="targetPoint" />
          </mxGeometry>
        </mxCell>
        <mxCell id="1456" value="" style="edgeStyle=none;endArrow=none;strokeWidth=3;strokeColor=#64BBE2;html=1;" parent="1" source="1353" target="1445" edge="1">
          <mxGeometry x="-24" y="196.5" width="100" height="100" as="geometry">
            <mxPoint x="-24" y="296.5" as="sourcePoint" />
            <mxPoint x="76" y="196.5" as="targetPoint" />
          </mxGeometry>
        </mxCell>
        <mxCell id="1458" value="Texan Ops LLC" style="rounded=1;fillColor=#a29dc5;strokeColor=none;strokeWidth=3;shadow=0;html=1;fontColor=#FFFFFF;" parent="1" vertex="1">
          <mxGeometry x="1631" y="1301.5" width="120" height="40" as="geometry" />
        </mxCell>
        <mxCell id="1460" value="KD College Prep" style="rounded=1;fillColor=#a29dc5;strokeColor=none;strokeWidth=3;shadow=0;html=1;fontColor=#FFFFFF;" parent="1" vertex="1">
          <mxGeometry x="1901" y="1194" width="120" height="40" as="geometry" />
        </mxCell>
        <mxCell id="1461" value="Alcon" style="rounded=1;fillColor=#a29dc5;strokeColor=none;strokeWidth=3;shadow=0;html=1;fontColor=#FFFFFF;" parent="1" vertex="1">
          <mxGeometry x="1821" y="1331.5" width="120" height="40" as="geometry" />
        </mxCell>
        <mxCell id="1463" value="" style="edgeStyle=none;endArrow=none;strokeWidth=3;strokeColor=#A29DC5;html=1;" parent="1" source="1354" target="1460" edge="1">
          <mxGeometry x="251" y="-103.5" width="100" height="100" as="geometry">
            <mxPoint x="251" y="-3.5" as="sourcePoint" />
            <mxPoint x="351" y="-103.5" as="targetPoint" />
          </mxGeometry>
        </mxCell>
        <mxCell id="1464" value="" style="edgeStyle=none;endArrow=none;strokeWidth=3;strokeColor=#A29DC5;html=1;" parent="1" source="1354" target="1461" edge="1">
          <mxGeometry x="251" y="-103.5" width="100" height="100" as="geometry">
            <mxPoint x="251" y="-3.5" as="sourcePoint" />
            <mxPoint x="351" y="-103.5" as="targetPoint" />
          </mxGeometry>
        </mxCell>
        <mxCell id="1465" value="" style="edgeStyle=none;endArrow=none;strokeWidth=3;strokeColor=#A29DC5;html=1;" parent="1" source="1354" target="1458" edge="1">
          <mxGeometry x="251" y="-103.5" width="100" height="100" as="geometry">
            <mxPoint x="251" y="-3.5" as="sourcePoint" />
            <mxPoint x="351" y="-103.5" as="targetPoint" />
          </mxGeometry>
        </mxCell>
        <mxCell id="1468" value="Fixed image positioning" style="rounded=1;fillColor=#f5af58;strokeColor=none;strokeWidth=3;shadow=0;html=1;fontColor=#FFFFFF;" parent="1" vertex="1">
          <mxGeometry x="1350" y="1389" width="160" height="41" as="geometry" />
        </mxCell>
        <mxCell id="1469" value="&lt;font style=&quot;font-size: 12px&quot;&gt;Responsive - Mobile/ Desktop&lt;/font&gt;" style="rounded=1;fillColor=#f5af58;strokeColor=none;strokeWidth=3;shadow=0;html=1;fontColor=#FFFFFF;" parent="1" vertex="1">
          <mxGeometry x="1043.5" y="1480" width="166.5" height="70" as="geometry" />
        </mxCell>
        <mxCell id="1470" value="Interactive nav bar" style="rounded=1;fillColor=#f5af58;strokeColor=none;strokeWidth=3;shadow=0;html=1;fontColor=#FFFFFF;" parent="1" vertex="1">
          <mxGeometry x="950" y="1331.5" width="120" height="40" as="geometry" />
        </mxCell>
        <mxCell id="1478" value="parallax scrolling" style="rounded=1;fillColor=#f5af58;strokeColor=none;strokeWidth=3;shadow=0;html=1;fontColor=#FFFFFF;" parent="1" vertex="1">
          <mxGeometry x="1298.5" y="1194" width="120" height="40" as="geometry" />
        </mxCell>
        <mxCell id="1479" value="" style="edgeStyle=none;endArrow=none;strokeWidth=3;strokeColor=#F5AF58;html=1;" parent="1" source="1355" target="1478" edge="1">
          <mxGeometry x="243.5" y="39" width="100" height="100" as="geometry">
            <mxPoint x="243.5" y="139" as="sourcePoint" />
            <mxPoint x="343.5" y="39" as="targetPoint" />
          </mxGeometry>
        </mxCell>
        <mxCell id="1480" value="" style="edgeStyle=none;endArrow=none;strokeWidth=3;strokeColor=#F5AF58;html=1;" parent="1" source="1355" target="1468" edge="1">
          <mxGeometry x="243.5" y="39" width="100" height="100" as="geometry">
            <mxPoint x="243.5" y="139" as="sourcePoint" />
            <mxPoint x="343.5" y="39" as="targetPoint" />
          </mxGeometry>
        </mxCell>
        <mxCell id="1481" value="" style="edgeStyle=none;endArrow=none;strokeWidth=3;strokeColor=#F5AF58;html=1;" parent="1" source="1355" target="1469" edge="1">
          <mxGeometry x="243.5" y="39" width="100" height="100" as="geometry">
            <mxPoint x="243.5" y="139" as="sourcePoint" />
            <mxPoint x="343.5" y="39" as="targetPoint" />
          </mxGeometry>
        </mxCell>
        <mxCell id="1482" value="" style="edgeStyle=none;endArrow=none;strokeWidth=3;strokeColor=#F5AF58;html=1;" parent="1" source="1355" target="1470" edge="1">
          <mxGeometry x="243.5" y="39" width="100" height="100" as="geometry">
            <mxPoint x="243.5" y="139" as="sourcePoint" />
            <mxPoint x="343.5" y="39" as="targetPoint" />
          </mxGeometry>
        </mxCell>
        <mxCell id="1514" style="edgeStyle=orthogonalEdgeStyle;rounded=0;html=1;exitX=0.75;exitY=0;entryX=0.75;entryY=0;startArrow=none;startFill=0;endArrow=block;endFill=1;jettySize=auto;orthogonalLoop=1;strokeColor=#12aab5;strokeWidth=6;fontSize=20;fontColor=#2F5B7C;" parent="1" edge="1">
          <mxGeometry relative="1" as="geometry">
            <mxPoint x="1611" y="371.4999999999998" as="sourcePoint" />
            <mxPoint x="1611" y="371.4999999999998" as="targetPoint" />
          </mxGeometry>
        </mxCell>
        <mxCell id="1515" value="&lt;p style=&quot;line-height: 80% ; font-size: 20px&quot;&gt;nicolerodrigues.tech&lt;/p&gt;" style="ellipse;whiteSpace=wrap;html=1;shadow=0;fontFamily=Helvetica;fontSize=30;fontColor=#2F5B7C;align=center;strokeColor=#2F5B7C;strokeWidth=6;fillColor=#FFFFFF;fontStyle=1;gradientColor=none;" parent="1" vertex="1">
          <mxGeometry x="980" y="676.5" width="251" height="263.5" as="geometry" />
        </mxCell>
        <mxCell id="1516" value="JavaScript" style="ellipse;whiteSpace=wrap;html=1;shadow=0;fontFamily=Helvetica;fontSize=20;fontColor=#FFFFFF;align=center;strokeWidth=3;fillColor=#736ca8;strokeColor=none;" parent="1" vertex="1">
          <mxGeometry x="449.5" y="1010" width="120" height="120" as="geometry" />
        </mxCell>
        <mxCell id="1523" value="Popup Resume" style="rounded=1;fillColor=#a29dc5;strokeColor=none;strokeWidth=3;shadow=0;html=1;fontColor=#FFFFFF;" parent="1" vertex="1">
          <mxGeometry x="413.5" y="1180" width="120" height="40" as="geometry" />
        </mxCell>
        <mxCell id="1524" value="Animated Text" style="rounded=1;fillColor=#a29dc5;strokeColor=none;strokeWidth=3;shadow=0;html=1;fontColor=#FFFFFF;" parent="1" vertex="1">
          <mxGeometry x="650" y="1100" width="120" height="40" as="geometry" />
        </mxCell>
        <mxCell id="1525" value="Social Media Icons" style="rounded=1;fillColor=#a29dc5;strokeColor=none;strokeWidth=3;shadow=0;html=1;fontColor=#FFFFFF;" parent="1" vertex="1">
          <mxGeometry x="260" y="870" width="120" height="40" as="geometry" />
        </mxCell>
        <mxCell id="1535" value="" style="edgeStyle=none;endArrow=none;strokeWidth=3;strokeColor=#A29DC5;html=1;" parent="1" source="1516" target="1523" edge="1">
          <mxGeometry x="-1498" y="-303.5" width="100" height="100" as="geometry">
            <mxPoint x="-1498" y="-203.5" as="sourcePoint" />
            <mxPoint x="-1398" y="-303.5" as="targetPoint" />
          </mxGeometry>
        </mxCell>
        <mxCell id="1536" value="" style="edgeStyle=none;endArrow=none;strokeWidth=3;strokeColor=#A29DC5;html=1;" parent="1" source="1516" target="1524" edge="1">
          <mxGeometry x="-1498" y="-303.5" width="100" height="100" as="geometry">
            <mxPoint x="-1498" y="-203.5" as="sourcePoint" />
            <mxPoint x="-1398" y="-303.5" as="targetPoint" />
          </mxGeometry>
        </mxCell>
        <mxCell id="1537" value="" style="edgeStyle=none;endArrow=none;strokeWidth=3;strokeColor=#A29DC5;html=1;" parent="1" source="1516" target="1525" edge="1">
          <mxGeometry x="-1498" y="-303.5" width="100" height="100" as="geometry">
            <mxPoint x="-1498" y="-203.5" as="sourcePoint" />
            <mxPoint x="-1398" y="-303.5" as="targetPoint" />
          </mxGeometry>
        </mxCell>
        <mxCell id="1542" style="edgeStyle=none;rounded=0;html=1;exitX=0.5;exitY=1;endArrow=none;endFill=0;jettySize=auto;orthogonalLoop=1;strokeColor=#736CA8;strokeWidth=2;fillColor=#64bbe2;fontSize=20;fontColor=#23445D;" parent="1" edge="1">
          <mxGeometry relative="1" as="geometry">
            <mxPoint x="137" y="771.5" as="sourcePoint" />
            <mxPoint x="137" y="771.5" as="targetPoint" />
          </mxGeometry>
        </mxCell>
        <mxCell id="5E4OCd3RwR1aqIa6-jmw-1542" value="" style="edgeStyle=none;endArrow=none;strokeWidth=3;strokeColor=#64BBE2;html=1;" edge="1" parent="1">
          <mxGeometry x="-17.09" y="161.5" width="100" height="100" as="geometry">
            <mxPoint x="2050.004645604952" y="860.1255117742585" as="sourcePoint" />
            <mxPoint x="2160" y="860" as="targetPoint" />
          </mxGeometry>
        </mxCell>
        <mxCell id="5E4OCd3RwR1aqIa6-jmw-1543" value="Text subjectivity analysis" style="rounded=1;fillColor=#64BBE2;strokeColor=none;strokeWidth=3;shadow=0;html=1;fontColor=#FFFFFF;" vertex="1" parent="1">
          <mxGeometry x="2155.5" y="841.5" width="164.5" height="58.5" as="geometry" />
        </mxCell>
        <mxCell id="5E4OCd3RwR1aqIa6-jmw-1544" value="Travel Buddy" style="rounded=1;fillColor=#64BBE2;strokeColor=none;strokeWidth=3;shadow=0;html=1;fontColor=#FFFFFF;" vertex="1" parent="1">
          <mxGeometry x="1970" y="1030" width="164.5" height="58.5" as="geometry" />
        </mxCell>
        <mxCell id="5E4OCd3RwR1aqIa6-jmw-1545" value="" style="edgeStyle=none;endArrow=none;strokeWidth=3;strokeColor=#64BBE2;html=1;exitX=0.763;exitY=0.971;exitDx=0;exitDy=0;exitPerimeter=0;entryX=0.5;entryY=0;entryDx=0;entryDy=0;" edge="1" parent="1" source="1353" target="5E4OCd3RwR1aqIa6-jmw-1544">
          <mxGeometry x="-7.09" y="171.5" width="100" height="100" as="geometry">
            <mxPoint x="2060.004645604952" y="870.1255117742585" as="sourcePoint" />
            <mxPoint x="2050" y="1020" as="targetPoint" />
            <Array as="points" />
          </mxGeometry>
        </mxCell>
      </root>
    </mxGraphModel>
  </diagram>
</mxfile>
